<svg xmlns="http://www.w3.org/2000/svg" viewBox="0 0 2331.5 2500"><path fill="#e55b2d" d="M1332.3 384.6v384.6l666.2 384.6V769.2zM0 769.2v384.6l333.1 192.3V961.5zm999.2 192.3-333.1 192.3v1153.8L999.2 2500v-769.2l333.1 192.3v-384.6l-333.1-192.3z"/><path fill="#ed8e24" d="M1332.3 384.6 333.1 961.5v384.6l666.2-384.6v384.6l333.1-192.3V384.6zm999.2 192.3-333.1 192.3v384.6l333.1-192.3zm-666.1 769.3-333.1 192.3v384.6l333.1-192.3zm-333.1 576.9-333.1-192.3V2500l333.1-192.3z"/><path fill="#f8bf3c" d="M1332.3 0 0 769.2l333.1 192.3 999.2-576.9 666.2 384.6 333.1-192.3zm0 1153.8-333.1 192.3 333.1 192.3 333.1-192.3z"/></svg>